<mxfile host="app.diagrams.net" modified="2024-01-29T17:07:15.989Z" agent="Mozilla/5.0 (Windows NT 10.0; Win64; x64) AppleWebKit/537.36 (KHTML, like Gecko) Chrome/121.0.0.0 Safari/537.36" etag="FVYqQxqJbh8XSp4dT3WY" version="23.0.2" type="github">
  <diagram name="Page-1" id="hBh5mmFFIOlA6MnZkwem">
    <mxGraphModel dx="1050" dy="570" grid="1" gridSize="10" guides="1" tooltips="1" connect="1" arrows="1" fold="1" page="1" pageScale="1" pageWidth="1100" pageHeight="850" math="0" shadow="0">
      <root>
        <mxCell id="0" />
        <mxCell id="1" parent="0" />
        <mxCell id="AYcPpENJsECgOzOpR9Fd-1" value="TBL_MONEYBALANCE" style="shape=table;startSize=30;container=1;collapsible=0;childLayout=tableLayout;" vertex="1" parent="1">
          <mxGeometry x="110" y="40" width="780" height="379" as="geometry" />
        </mxCell>
        <mxCell id="AYcPpENJsECgOzOpR9Fd-53" style="shape=tableRow;horizontal=0;startSize=0;swimlaneHead=0;swimlaneBody=0;strokeColor=inherit;top=0;left=0;bottom=0;right=0;collapsible=0;dropTarget=0;fillColor=none;points=[[0,0.5],[1,0.5]];portConstraint=eastwest;" vertex="1" parent="AYcPpENJsECgOzOpR9Fd-1">
          <mxGeometry y="30" width="780" height="113" as="geometry" />
        </mxCell>
        <mxCell id="AYcPpENJsECgOzOpR9Fd-54" style="shape=partialRectangle;html=1;whiteSpace=wrap;connectable=0;strokeColor=inherit;overflow=hidden;fillColor=none;top=0;left=0;bottom=0;right=0;pointerEvents=1;" vertex="1" parent="AYcPpENJsECgOzOpR9Fd-53">
          <mxGeometry width="156" height="113" as="geometry">
            <mxRectangle width="156" height="113" as="alternateBounds" />
          </mxGeometry>
        </mxCell>
        <mxCell id="AYcPpENJsECgOzOpR9Fd-55" style="shape=partialRectangle;html=1;whiteSpace=wrap;connectable=0;strokeColor=inherit;overflow=hidden;fillColor=none;top=0;left=0;bottom=0;right=0;pointerEvents=1;" vertex="1" parent="AYcPpENJsECgOzOpR9Fd-53">
          <mxGeometry x="156" width="156" height="113" as="geometry">
            <mxRectangle width="156" height="113" as="alternateBounds" />
          </mxGeometry>
        </mxCell>
        <mxCell id="AYcPpENJsECgOzOpR9Fd-56" style="shape=partialRectangle;html=1;whiteSpace=wrap;connectable=0;strokeColor=inherit;overflow=hidden;fillColor=none;top=0;left=0;bottom=0;right=0;pointerEvents=1;" vertex="1" parent="AYcPpENJsECgOzOpR9Fd-53">
          <mxGeometry x="312" width="156" height="113" as="geometry">
            <mxRectangle width="156" height="113" as="alternateBounds" />
          </mxGeometry>
        </mxCell>
        <mxCell id="AYcPpENJsECgOzOpR9Fd-57" style="shape=partialRectangle;html=1;whiteSpace=wrap;connectable=0;strokeColor=inherit;overflow=hidden;fillColor=none;top=0;left=0;bottom=0;right=0;pointerEvents=1;" vertex="1" parent="AYcPpENJsECgOzOpR9Fd-53">
          <mxGeometry x="468" width="160" height="113" as="geometry">
            <mxRectangle width="160" height="113" as="alternateBounds" />
          </mxGeometry>
        </mxCell>
        <mxCell id="AYcPpENJsECgOzOpR9Fd-58" style="shape=partialRectangle;html=1;whiteSpace=wrap;connectable=0;strokeColor=inherit;overflow=hidden;fillColor=none;top=0;left=0;bottom=0;right=0;pointerEvents=1;" vertex="1" parent="AYcPpENJsECgOzOpR9Fd-53">
          <mxGeometry x="628" width="152" height="113" as="geometry">
            <mxRectangle width="152" height="113" as="alternateBounds" />
          </mxGeometry>
        </mxCell>
        <mxCell id="AYcPpENJsECgOzOpR9Fd-43" style="shape=tableRow;horizontal=0;startSize=0;swimlaneHead=0;swimlaneBody=0;strokeColor=inherit;top=0;left=0;bottom=0;right=0;collapsible=0;dropTarget=0;fillColor=none;points=[[0,0.5],[1,0.5]];portConstraint=eastwest;" vertex="1" parent="AYcPpENJsECgOzOpR9Fd-1">
          <mxGeometry y="143" width="780" height="113" as="geometry" />
        </mxCell>
        <mxCell id="AYcPpENJsECgOzOpR9Fd-44" value="way of payment&amp;nbsp;" style="shape=partialRectangle;html=1;whiteSpace=wrap;connectable=0;strokeColor=inherit;overflow=hidden;fillColor=none;top=0;left=0;bottom=0;right=0;pointerEvents=1;" vertex="1" parent="AYcPpENJsECgOzOpR9Fd-43">
          <mxGeometry width="156" height="113" as="geometry">
            <mxRectangle width="156" height="113" as="alternateBounds" />
          </mxGeometry>
        </mxCell>
        <mxCell id="AYcPpENJsECgOzOpR9Fd-45" value="varchar&lt;span style=&quot;white-space: pre;&quot;&gt;&#x9;&lt;/span&gt;" style="shape=partialRectangle;html=1;whiteSpace=wrap;connectable=0;strokeColor=inherit;overflow=hidden;fillColor=none;top=0;left=0;bottom=0;right=0;pointerEvents=1;" vertex="1" parent="AYcPpENJsECgOzOpR9Fd-43">
          <mxGeometry x="156" width="156" height="113" as="geometry">
            <mxRectangle width="156" height="113" as="alternateBounds" />
          </mxGeometry>
        </mxCell>
        <mxCell id="AYcPpENJsECgOzOpR9Fd-46" value="20" style="shape=partialRectangle;html=1;whiteSpace=wrap;connectable=0;strokeColor=inherit;overflow=hidden;fillColor=none;top=0;left=0;bottom=0;right=0;pointerEvents=1;" vertex="1" parent="AYcPpENJsECgOzOpR9Fd-43">
          <mxGeometry x="312" width="156" height="113" as="geometry">
            <mxRectangle width="156" height="113" as="alternateBounds" />
          </mxGeometry>
        </mxCell>
        <mxCell id="AYcPpENJsECgOzOpR9Fd-47" value="Primary key" style="shape=partialRectangle;html=1;whiteSpace=wrap;connectable=0;strokeColor=inherit;overflow=hidden;fillColor=none;top=0;left=0;bottom=0;right=0;pointerEvents=1;" vertex="1" parent="AYcPpENJsECgOzOpR9Fd-43">
          <mxGeometry x="468" width="160" height="113" as="geometry">
            <mxRectangle width="160" height="113" as="alternateBounds" />
          </mxGeometry>
        </mxCell>
        <mxCell id="AYcPpENJsECgOzOpR9Fd-48" value="select the way of payment" style="shape=partialRectangle;html=1;whiteSpace=wrap;connectable=0;strokeColor=inherit;overflow=hidden;fillColor=none;top=0;left=0;bottom=0;right=0;pointerEvents=1;" vertex="1" parent="AYcPpENJsECgOzOpR9Fd-43">
          <mxGeometry x="628" width="152" height="113" as="geometry">
            <mxRectangle width="152" height="113" as="alternateBounds" />
          </mxGeometry>
        </mxCell>
        <mxCell id="AYcPpENJsECgOzOpR9Fd-2" value="" style="shape=tableRow;horizontal=0;startSize=0;swimlaneHead=0;swimlaneBody=0;strokeColor=inherit;top=0;left=0;bottom=0;right=0;collapsible=0;dropTarget=0;fillColor=none;points=[[0,0.5],[1,0.5]];portConstraint=eastwest;" vertex="1" parent="AYcPpENJsECgOzOpR9Fd-1">
          <mxGeometry y="256" width="780" height="123" as="geometry" />
        </mxCell>
        <mxCell id="AYcPpENJsECgOzOpR9Fd-3" value="order_id" style="shape=partialRectangle;html=1;whiteSpace=wrap;connectable=0;strokeColor=inherit;overflow=hidden;fillColor=none;top=0;left=0;bottom=0;right=0;pointerEvents=1;" vertex="1" parent="AYcPpENJsECgOzOpR9Fd-2">
          <mxGeometry width="156" height="123" as="geometry">
            <mxRectangle width="156" height="123" as="alternateBounds" />
          </mxGeometry>
        </mxCell>
        <mxCell id="AYcPpENJsECgOzOpR9Fd-4" value="number" style="shape=partialRectangle;html=1;whiteSpace=wrap;connectable=0;strokeColor=inherit;overflow=hidden;fillColor=none;top=0;left=0;bottom=0;right=0;pointerEvents=1;" vertex="1" parent="AYcPpENJsECgOzOpR9Fd-2">
          <mxGeometry x="156" width="156" height="123" as="geometry">
            <mxRectangle width="156" height="123" as="alternateBounds" />
          </mxGeometry>
        </mxCell>
        <mxCell id="AYcPpENJsECgOzOpR9Fd-5" value="10" style="shape=partialRectangle;html=1;whiteSpace=wrap;connectable=0;strokeColor=inherit;overflow=hidden;fillColor=none;top=0;left=0;bottom=0;right=0;pointerEvents=1;" vertex="1" parent="AYcPpENJsECgOzOpR9Fd-2">
          <mxGeometry x="312" width="156" height="123" as="geometry">
            <mxRectangle width="156" height="123" as="alternateBounds" />
          </mxGeometry>
        </mxCell>
        <mxCell id="AYcPpENJsECgOzOpR9Fd-6" value="foriegn key" style="shape=partialRectangle;html=1;whiteSpace=wrap;connectable=0;strokeColor=inherit;overflow=hidden;fillColor=none;top=0;left=0;bottom=0;right=0;pointerEvents=1;" vertex="1" parent="AYcPpENJsECgOzOpR9Fd-2">
          <mxGeometry x="468" width="160" height="123" as="geometry">
            <mxRectangle width="160" height="123" as="alternateBounds" />
          </mxGeometry>
        </mxCell>
        <mxCell id="AYcPpENJsECgOzOpR9Fd-7" value="record for all the order with unique id&amp;nbsp;" style="shape=partialRectangle;html=1;whiteSpace=wrap;connectable=0;strokeColor=inherit;overflow=hidden;fillColor=none;top=0;left=0;bottom=0;right=0;pointerEvents=1;" vertex="1" parent="AYcPpENJsECgOzOpR9Fd-2">
          <mxGeometry x="628" width="152" height="123" as="geometry">
            <mxRectangle width="152" height="123" as="alternateBounds" />
          </mxGeometry>
        </mxCell>
        <mxCell id="AYcPpENJsECgOzOpR9Fd-50" value="Field name" style="shape=partialRectangle;html=1;whiteSpace=wrap;connectable=0;strokeColor=inherit;overflow=hidden;fillColor=none;top=0;left=0;bottom=0;right=0;pointerEvents=1;" vertex="1" parent="1">
          <mxGeometry x="116" y="90" width="144" height="48" as="geometry">
            <mxRectangle width="144" height="48" as="alternateBounds" />
          </mxGeometry>
        </mxCell>
        <mxCell id="AYcPpENJsECgOzOpR9Fd-51" value="Data Type&amp;nbsp;" style="shape=partialRectangle;html=1;whiteSpace=wrap;connectable=0;strokeColor=inherit;overflow=hidden;fillColor=none;top=0;left=0;bottom=0;right=0;pointerEvents=1;" vertex="1" parent="1">
          <mxGeometry x="270" y="90" width="144" height="48" as="geometry">
            <mxRectangle width="144" height="48" as="alternateBounds" />
          </mxGeometry>
        </mxCell>
        <mxCell id="AYcPpENJsECgOzOpR9Fd-52" value="Field Length" style="shape=partialRectangle;html=1;whiteSpace=wrap;connectable=0;strokeColor=inherit;overflow=hidden;fillColor=none;top=0;left=0;bottom=0;right=0;pointerEvents=1;" vertex="1" parent="1">
          <mxGeometry x="426" y="90" width="144" height="48" as="geometry">
            <mxRectangle width="144" height="48" as="alternateBounds" />
          </mxGeometry>
        </mxCell>
        <mxCell id="AYcPpENJsECgOzOpR9Fd-59" value="&#xa;&lt;span style=&quot;color: rgb(0, 0, 0); font-family: Helvetica; font-size: 12px; font-style: normal; font-variant-ligatures: normal; font-variant-caps: normal; font-weight: 400; letter-spacing: normal; orphans: 2; text-align: center; text-indent: 0px; text-transform: none; widows: 2; word-spacing: 0px; -webkit-text-stroke-width: 0px; background-color: rgb(251, 251, 251); text-decoration-thickness: initial; text-decoration-style: initial; text-decoration-color: initial; float: none; display: inline !important;&quot;&gt;Constraint&lt;/span&gt;&#xa;&#xa;" style="shape=partialRectangle;html=1;whiteSpace=wrap;connectable=0;strokeColor=inherit;overflow=hidden;fillColor=none;top=0;left=0;bottom=0;right=0;pointerEvents=1;" vertex="1" parent="1">
          <mxGeometry x="580" y="90" width="148" height="48" as="geometry">
            <mxRectangle width="148" height="48" as="alternateBounds" />
          </mxGeometry>
        </mxCell>
        <mxCell id="AYcPpENJsECgOzOpR9Fd-60" value="Discription" style="shape=partialRectangle;html=1;whiteSpace=wrap;connectable=0;strokeColor=inherit;overflow=hidden;fillColor=none;top=0;left=0;bottom=0;right=0;pointerEvents=1;" vertex="1" parent="1">
          <mxGeometry x="750" y="90" width="140" height="48" as="geometry">
            <mxRectangle width="140" height="48" as="alternateBounds" />
          </mxGeometry>
        </mxCell>
        <mxCell id="AYcPpENJsECgOzOpR9Fd-79" value="TBL_type_of_payment" style="shape=table;startSize=30;container=1;collapsible=0;childLayout=tableLayout;" vertex="1" parent="1">
          <mxGeometry x="126" y="430" width="710" height="414" as="geometry" />
        </mxCell>
        <mxCell id="AYcPpENJsECgOzOpR9Fd-80" value="" style="shape=tableRow;horizontal=0;startSize=0;swimlaneHead=0;swimlaneBody=0;strokeColor=inherit;top=0;left=0;bottom=0;right=0;collapsible=0;dropTarget=0;fillColor=none;points=[[0,0.5],[1,0.5]];portConstraint=eastwest;" vertex="1" parent="AYcPpENJsECgOzOpR9Fd-79">
          <mxGeometry y="30" width="710" height="77" as="geometry" />
        </mxCell>
        <mxCell id="AYcPpENJsECgOzOpR9Fd-81" value="Field name" style="shape=partialRectangle;html=1;whiteSpace=wrap;connectable=0;strokeColor=inherit;overflow=hidden;fillColor=none;top=0;left=0;bottom=0;right=0;pointerEvents=1;" vertex="1" parent="AYcPpENJsECgOzOpR9Fd-80">
          <mxGeometry width="142" height="77" as="geometry">
            <mxRectangle width="142" height="77" as="alternateBounds" />
          </mxGeometry>
        </mxCell>
        <mxCell id="AYcPpENJsECgOzOpR9Fd-82" value="data type" style="shape=partialRectangle;html=1;whiteSpace=wrap;connectable=0;strokeColor=inherit;overflow=hidden;fillColor=none;top=0;left=0;bottom=0;right=0;pointerEvents=1;" vertex="1" parent="AYcPpENJsECgOzOpR9Fd-80">
          <mxGeometry x="142" width="142" height="77" as="geometry">
            <mxRectangle width="142" height="77" as="alternateBounds" />
          </mxGeometry>
        </mxCell>
        <mxCell id="AYcPpENJsECgOzOpR9Fd-83" value="field length" style="shape=partialRectangle;html=1;whiteSpace=wrap;connectable=0;strokeColor=inherit;overflow=hidden;fillColor=none;top=0;left=0;bottom=0;right=0;pointerEvents=1;" vertex="1" parent="AYcPpENJsECgOzOpR9Fd-80">
          <mxGeometry x="284" width="142" height="77" as="geometry">
            <mxRectangle width="142" height="77" as="alternateBounds" />
          </mxGeometry>
        </mxCell>
        <mxCell id="AYcPpENJsECgOzOpR9Fd-84" value="Constraint" style="shape=partialRectangle;html=1;whiteSpace=wrap;connectable=0;strokeColor=inherit;overflow=hidden;fillColor=none;top=0;left=0;bottom=0;right=0;pointerEvents=1;" vertex="1" parent="AYcPpENJsECgOzOpR9Fd-80">
          <mxGeometry x="426" width="124" height="77" as="geometry">
            <mxRectangle width="124" height="77" as="alternateBounds" />
          </mxGeometry>
        </mxCell>
        <mxCell id="AYcPpENJsECgOzOpR9Fd-85" value="Discription" style="shape=partialRectangle;html=1;whiteSpace=wrap;connectable=0;strokeColor=inherit;overflow=hidden;fillColor=none;top=0;left=0;bottom=0;right=0;pointerEvents=1;" vertex="1" parent="AYcPpENJsECgOzOpR9Fd-80">
          <mxGeometry x="550" width="160" height="77" as="geometry">
            <mxRectangle width="160" height="77" as="alternateBounds" />
          </mxGeometry>
        </mxCell>
        <mxCell id="AYcPpENJsECgOzOpR9Fd-86" value="" style="shape=tableRow;horizontal=0;startSize=0;swimlaneHead=0;swimlaneBody=0;strokeColor=inherit;top=0;left=0;bottom=0;right=0;collapsible=0;dropTarget=0;fillColor=none;points=[[0,0.5],[1,0.5]];portConstraint=eastwest;" vertex="1" parent="AYcPpENJsECgOzOpR9Fd-79">
          <mxGeometry y="107" width="710" height="76" as="geometry" />
        </mxCell>
        <mxCell id="AYcPpENJsECgOzOpR9Fd-87" value="" style="shape=partialRectangle;html=1;whiteSpace=wrap;connectable=0;strokeColor=inherit;overflow=hidden;fillColor=none;top=0;left=0;bottom=0;right=0;pointerEvents=1;" vertex="1" parent="AYcPpENJsECgOzOpR9Fd-86">
          <mxGeometry width="142" height="76" as="geometry">
            <mxRectangle width="142" height="76" as="alternateBounds" />
          </mxGeometry>
        </mxCell>
        <mxCell id="AYcPpENJsECgOzOpR9Fd-88" value="" style="shape=partialRectangle;html=1;whiteSpace=wrap;connectable=0;strokeColor=inherit;overflow=hidden;fillColor=none;top=0;left=0;bottom=0;right=0;pointerEvents=1;" vertex="1" parent="AYcPpENJsECgOzOpR9Fd-86">
          <mxGeometry x="142" width="142" height="76" as="geometry">
            <mxRectangle width="142" height="76" as="alternateBounds" />
          </mxGeometry>
        </mxCell>
        <mxCell id="AYcPpENJsECgOzOpR9Fd-89" value="" style="shape=partialRectangle;html=1;whiteSpace=wrap;connectable=0;strokeColor=inherit;overflow=hidden;fillColor=none;top=0;left=0;bottom=0;right=0;pointerEvents=1;" vertex="1" parent="AYcPpENJsECgOzOpR9Fd-86">
          <mxGeometry x="284" width="142" height="76" as="geometry">
            <mxRectangle width="142" height="76" as="alternateBounds" />
          </mxGeometry>
        </mxCell>
        <mxCell id="AYcPpENJsECgOzOpR9Fd-90" value="" style="shape=partialRectangle;html=1;whiteSpace=wrap;connectable=0;strokeColor=inherit;overflow=hidden;fillColor=none;top=0;left=0;bottom=0;right=0;pointerEvents=1;" vertex="1" parent="AYcPpENJsECgOzOpR9Fd-86">
          <mxGeometry x="426" width="124" height="76" as="geometry">
            <mxRectangle width="124" height="76" as="alternateBounds" />
          </mxGeometry>
        </mxCell>
        <mxCell id="AYcPpENJsECgOzOpR9Fd-91" value="" style="shape=partialRectangle;html=1;whiteSpace=wrap;connectable=0;strokeColor=inherit;overflow=hidden;fillColor=none;top=0;left=0;bottom=0;right=0;pointerEvents=1;" vertex="1" parent="AYcPpENJsECgOzOpR9Fd-86">
          <mxGeometry x="550" width="160" height="76" as="geometry">
            <mxRectangle width="160" height="76" as="alternateBounds" />
          </mxGeometry>
        </mxCell>
        <mxCell id="AYcPpENJsECgOzOpR9Fd-92" value="" style="shape=tableRow;horizontal=0;startSize=0;swimlaneHead=0;swimlaneBody=0;strokeColor=inherit;top=0;left=0;bottom=0;right=0;collapsible=0;dropTarget=0;fillColor=none;points=[[0,0.5],[1,0.5]];portConstraint=eastwest;" vertex="1" parent="AYcPpENJsECgOzOpR9Fd-79">
          <mxGeometry y="183" width="710" height="77" as="geometry" />
        </mxCell>
        <mxCell id="AYcPpENJsECgOzOpR9Fd-93" value="" style="shape=partialRectangle;html=1;whiteSpace=wrap;connectable=0;strokeColor=inherit;overflow=hidden;fillColor=none;top=0;left=0;bottom=0;right=0;pointerEvents=1;" vertex="1" parent="AYcPpENJsECgOzOpR9Fd-92">
          <mxGeometry width="142" height="77" as="geometry">
            <mxRectangle width="142" height="77" as="alternateBounds" />
          </mxGeometry>
        </mxCell>
        <mxCell id="AYcPpENJsECgOzOpR9Fd-94" value="" style="shape=partialRectangle;html=1;whiteSpace=wrap;connectable=0;strokeColor=inherit;overflow=hidden;fillColor=none;top=0;left=0;bottom=0;right=0;pointerEvents=1;" vertex="1" parent="AYcPpENJsECgOzOpR9Fd-92">
          <mxGeometry x="142" width="142" height="77" as="geometry">
            <mxRectangle width="142" height="77" as="alternateBounds" />
          </mxGeometry>
        </mxCell>
        <mxCell id="AYcPpENJsECgOzOpR9Fd-95" value="" style="shape=partialRectangle;html=1;whiteSpace=wrap;connectable=0;strokeColor=inherit;overflow=hidden;fillColor=none;top=0;left=0;bottom=0;right=0;pointerEvents=1;" vertex="1" parent="AYcPpENJsECgOzOpR9Fd-92">
          <mxGeometry x="284" width="142" height="77" as="geometry">
            <mxRectangle width="142" height="77" as="alternateBounds" />
          </mxGeometry>
        </mxCell>
        <mxCell id="AYcPpENJsECgOzOpR9Fd-96" value="" style="shape=partialRectangle;html=1;whiteSpace=wrap;connectable=0;strokeColor=inherit;overflow=hidden;fillColor=none;top=0;left=0;bottom=0;right=0;pointerEvents=1;" vertex="1" parent="AYcPpENJsECgOzOpR9Fd-92">
          <mxGeometry x="426" width="124" height="77" as="geometry">
            <mxRectangle width="124" height="77" as="alternateBounds" />
          </mxGeometry>
        </mxCell>
        <mxCell id="AYcPpENJsECgOzOpR9Fd-97" value="" style="shape=partialRectangle;html=1;whiteSpace=wrap;connectable=0;strokeColor=inherit;overflow=hidden;fillColor=none;top=0;left=0;bottom=0;right=0;pointerEvents=1;" vertex="1" parent="AYcPpENJsECgOzOpR9Fd-92">
          <mxGeometry x="550" width="160" height="77" as="geometry">
            <mxRectangle width="160" height="77" as="alternateBounds" />
          </mxGeometry>
        </mxCell>
        <mxCell id="AYcPpENJsECgOzOpR9Fd-98" style="shape=tableRow;horizontal=0;startSize=0;swimlaneHead=0;swimlaneBody=0;strokeColor=inherit;top=0;left=0;bottom=0;right=0;collapsible=0;dropTarget=0;fillColor=none;points=[[0,0.5],[1,0.5]];portConstraint=eastwest;" vertex="1" parent="AYcPpENJsECgOzOpR9Fd-79">
          <mxGeometry y="260" width="710" height="77" as="geometry" />
        </mxCell>
        <mxCell id="AYcPpENJsECgOzOpR9Fd-99" style="shape=partialRectangle;html=1;whiteSpace=wrap;connectable=0;strokeColor=inherit;overflow=hidden;fillColor=none;top=0;left=0;bottom=0;right=0;pointerEvents=1;" vertex="1" parent="AYcPpENJsECgOzOpR9Fd-98">
          <mxGeometry width="142" height="77" as="geometry">
            <mxRectangle width="142" height="77" as="alternateBounds" />
          </mxGeometry>
        </mxCell>
        <mxCell id="AYcPpENJsECgOzOpR9Fd-100" style="shape=partialRectangle;html=1;whiteSpace=wrap;connectable=0;strokeColor=inherit;overflow=hidden;fillColor=none;top=0;left=0;bottom=0;right=0;pointerEvents=1;" vertex="1" parent="AYcPpENJsECgOzOpR9Fd-98">
          <mxGeometry x="142" width="142" height="77" as="geometry">
            <mxRectangle width="142" height="77" as="alternateBounds" />
          </mxGeometry>
        </mxCell>
        <mxCell id="AYcPpENJsECgOzOpR9Fd-101" style="shape=partialRectangle;html=1;whiteSpace=wrap;connectable=0;strokeColor=inherit;overflow=hidden;fillColor=none;top=0;left=0;bottom=0;right=0;pointerEvents=1;" vertex="1" parent="AYcPpENJsECgOzOpR9Fd-98">
          <mxGeometry x="284" width="142" height="77" as="geometry">
            <mxRectangle width="142" height="77" as="alternateBounds" />
          </mxGeometry>
        </mxCell>
        <mxCell id="AYcPpENJsECgOzOpR9Fd-102" value="&#xa;&lt;span style=&quot;color: rgb(0, 0, 0); font-family: Helvetica; font-size: 12px; font-style: normal; font-variant-ligatures: normal; font-variant-caps: normal; font-weight: 400; letter-spacing: normal; orphans: 2; text-align: center; text-indent: 0px; text-transform: none; widows: 2; word-spacing: 0px; -webkit-text-stroke-width: 0px; background-color: rgb(251, 251, 251); text-decoration-thickness: initial; text-decoration-style: initial; text-decoration-color: initial; float: none; display: inline !important;&quot;&gt;foreign key&lt;/span&gt;&#xa;&#xa;" style="shape=partialRectangle;html=1;whiteSpace=wrap;connectable=0;strokeColor=inherit;overflow=hidden;fillColor=none;top=0;left=0;bottom=0;right=0;pointerEvents=1;" vertex="1" parent="AYcPpENJsECgOzOpR9Fd-98">
          <mxGeometry x="426" width="124" height="77" as="geometry">
            <mxRectangle width="124" height="77" as="alternateBounds" />
          </mxGeometry>
        </mxCell>
        <mxCell id="AYcPpENJsECgOzOpR9Fd-103" style="shape=partialRectangle;html=1;whiteSpace=wrap;connectable=0;strokeColor=inherit;overflow=hidden;fillColor=none;top=0;left=0;bottom=0;right=0;pointerEvents=1;" vertex="1" parent="AYcPpENJsECgOzOpR9Fd-98">
          <mxGeometry x="550" width="160" height="77" as="geometry">
            <mxRectangle width="160" height="77" as="alternateBounds" />
          </mxGeometry>
        </mxCell>
        <mxCell id="AYcPpENJsECgOzOpR9Fd-122" style="shape=tableRow;horizontal=0;startSize=0;swimlaneHead=0;swimlaneBody=0;strokeColor=inherit;top=0;left=0;bottom=0;right=0;collapsible=0;dropTarget=0;fillColor=none;points=[[0,0.5],[1,0.5]];portConstraint=eastwest;" vertex="1" parent="AYcPpENJsECgOzOpR9Fd-79">
          <mxGeometry y="337" width="710" height="77" as="geometry" />
        </mxCell>
        <mxCell id="AYcPpENJsECgOzOpR9Fd-123" value="phone_pay" style="shape=partialRectangle;html=1;whiteSpace=wrap;connectable=0;strokeColor=inherit;overflow=hidden;fillColor=none;top=0;left=0;bottom=0;right=0;pointerEvents=1;" vertex="1" parent="AYcPpENJsECgOzOpR9Fd-122">
          <mxGeometry width="142" height="77" as="geometry">
            <mxRectangle width="142" height="77" as="alternateBounds" />
          </mxGeometry>
        </mxCell>
        <mxCell id="AYcPpENJsECgOzOpR9Fd-124" value="int" style="shape=partialRectangle;html=1;whiteSpace=wrap;connectable=0;strokeColor=inherit;overflow=hidden;fillColor=none;top=0;left=0;bottom=0;right=0;pointerEvents=1;" vertex="1" parent="AYcPpENJsECgOzOpR9Fd-122">
          <mxGeometry x="142" width="142" height="77" as="geometry">
            <mxRectangle width="142" height="77" as="alternateBounds" />
          </mxGeometry>
        </mxCell>
        <mxCell id="AYcPpENJsECgOzOpR9Fd-125" value="10" style="shape=partialRectangle;html=1;whiteSpace=wrap;connectable=0;strokeColor=inherit;overflow=hidden;fillColor=none;top=0;left=0;bottom=0;right=0;pointerEvents=1;" vertex="1" parent="AYcPpENJsECgOzOpR9Fd-122">
          <mxGeometry x="284" width="142" height="77" as="geometry">
            <mxRectangle width="142" height="77" as="alternateBounds" />
          </mxGeometry>
        </mxCell>
        <mxCell id="AYcPpENJsECgOzOpR9Fd-126" value="foreign key" style="shape=partialRectangle;html=1;whiteSpace=wrap;connectable=0;strokeColor=inherit;overflow=hidden;fillColor=none;top=0;left=0;bottom=0;right=0;pointerEvents=1;" vertex="1" parent="AYcPpENJsECgOzOpR9Fd-122">
          <mxGeometry x="426" width="124" height="77" as="geometry">
            <mxRectangle width="124" height="77" as="alternateBounds" />
          </mxGeometry>
        </mxCell>
        <mxCell id="AYcPpENJsECgOzOpR9Fd-127" value="phone pay&amp;nbsp; balance" style="shape=partialRectangle;html=1;whiteSpace=wrap;connectable=0;strokeColor=inherit;overflow=hidden;fillColor=none;top=0;left=0;bottom=0;right=0;pointerEvents=1;" vertex="1" parent="AYcPpENJsECgOzOpR9Fd-122">
          <mxGeometry x="550" width="160" height="77" as="geometry">
            <mxRectangle width="160" height="77" as="alternateBounds" />
          </mxGeometry>
        </mxCell>
        <mxCell id="AYcPpENJsECgOzOpR9Fd-104" value="" style="shape=tableRow;horizontal=0;startSize=0;swimlaneHead=0;swimlaneBody=0;strokeColor=inherit;top=0;left=0;bottom=0;right=0;collapsible=0;dropTarget=0;fillColor=none;points=[[0,0.5],[1,0.5]];portConstraint=eastwest;" vertex="1" parent="1">
          <mxGeometry x="126" y="540" width="690" height="60" as="geometry" />
        </mxCell>
        <mxCell id="AYcPpENJsECgOzOpR9Fd-105" value="Paytm_balance" style="shape=partialRectangle;html=1;whiteSpace=wrap;connectable=0;strokeColor=inherit;overflow=hidden;fillColor=none;top=0;left=0;bottom=0;right=0;pointerEvents=1;" vertex="1" parent="AYcPpENJsECgOzOpR9Fd-104">
          <mxGeometry x="-10" y="10" width="156" height="48" as="geometry">
            <mxRectangle width="156" height="48" as="alternateBounds" />
          </mxGeometry>
        </mxCell>
        <mxCell id="AYcPpENJsECgOzOpR9Fd-106" value="int" style="shape=partialRectangle;html=1;whiteSpace=wrap;connectable=0;strokeColor=inherit;overflow=hidden;fillColor=none;top=0;left=0;bottom=0;right=0;pointerEvents=1;" vertex="1" parent="AYcPpENJsECgOzOpR9Fd-104">
          <mxGeometry x="140" y="10" width="156" height="48" as="geometry">
            <mxRectangle width="156" height="48" as="alternateBounds" />
          </mxGeometry>
        </mxCell>
        <mxCell id="AYcPpENJsECgOzOpR9Fd-108" value="foreign key" style="shape=partialRectangle;html=1;whiteSpace=wrap;connectable=0;strokeColor=inherit;overflow=hidden;fillColor=none;top=0;left=0;bottom=0;right=0;pointerEvents=1;" vertex="1" parent="AYcPpENJsECgOzOpR9Fd-104">
          <mxGeometry x="420" y="9" width="130" height="50" as="geometry">
            <mxRectangle width="160" height="48" as="alternateBounds" />
          </mxGeometry>
        </mxCell>
        <mxCell id="AYcPpENJsECgOzOpR9Fd-109" value="Paytm balance history" style="shape=partialRectangle;html=1;whiteSpace=wrap;connectable=0;strokeColor=inherit;overflow=hidden;fillColor=none;top=0;left=0;bottom=0;right=0;pointerEvents=1;" vertex="1" parent="AYcPpENJsECgOzOpR9Fd-104">
          <mxGeometry x="560" y="10" width="152" height="48" as="geometry">
            <mxRectangle width="152" height="48" as="alternateBounds" />
          </mxGeometry>
        </mxCell>
        <mxCell id="AYcPpENJsECgOzOpR9Fd-110" value="" style="shape=tableRow;horizontal=0;startSize=0;swimlaneHead=0;swimlaneBody=0;strokeColor=inherit;top=0;left=0;bottom=0;right=0;collapsible=0;dropTarget=0;fillColor=none;points=[[0,0.5],[1,0.5]];portConstraint=eastwest;" vertex="1" parent="1">
          <mxGeometry x="126" y="588" width="690" height="55" as="geometry" />
        </mxCell>
        <mxCell id="AYcPpENJsECgOzOpR9Fd-116" value="" style="shape=tableRow;horizontal=0;startSize=0;swimlaneHead=0;swimlaneBody=0;strokeColor=inherit;top=0;left=0;bottom=0;right=0;collapsible=0;dropTarget=0;fillColor=none;points=[[0,0.5],[1,0.5]];portConstraint=eastwest;" vertex="1" parent="1">
          <mxGeometry x="120" y="733" width="780" height="49" as="geometry" />
        </mxCell>
        <mxCell id="AYcPpENJsECgOzOpR9Fd-120" value="" style="shape=partialRectangle;html=1;whiteSpace=wrap;connectable=0;strokeColor=inherit;overflow=hidden;fillColor=none;top=0;left=0;bottom=0;right=0;pointerEvents=1;" vertex="1" parent="AYcPpENJsECgOzOpR9Fd-116">
          <mxGeometry x="474" y="-90" width="160" height="49" as="geometry">
            <mxRectangle width="160" height="49" as="alternateBounds" />
          </mxGeometry>
        </mxCell>
        <mxCell id="AYcPpENJsECgOzOpR9Fd-115" value="Cash balance history" style="shape=partialRectangle;html=1;whiteSpace=wrap;connectable=0;strokeColor=inherit;overflow=hidden;fillColor=none;top=0;left=0;bottom=0;right=0;pointerEvents=1;" vertex="1" parent="1">
          <mxGeometry x="684" y="620" width="152" height="55" as="geometry">
            <mxRectangle width="152" height="55" as="alternateBounds" />
          </mxGeometry>
        </mxCell>
        <mxCell id="AYcPpENJsECgOzOpR9Fd-121" value="googlepay balance history" style="shape=partialRectangle;html=1;whiteSpace=wrap;connectable=0;strokeColor=inherit;overflow=hidden;fillColor=none;top=0;left=0;bottom=0;right=0;pointerEvents=1;" vertex="1" parent="1">
          <mxGeometry x="684" y="692" width="152" height="49" as="geometry">
            <mxRectangle width="152" height="49" as="alternateBounds" />
          </mxGeometry>
        </mxCell>
        <mxCell id="AYcPpENJsECgOzOpR9Fd-107" value="10" style="shape=partialRectangle;html=1;whiteSpace=wrap;connectable=0;strokeColor=inherit;overflow=hidden;fillColor=none;top=0;left=0;bottom=0;right=0;pointerEvents=1;" vertex="1" parent="1">
          <mxGeometry x="406" y="550" width="156" height="48" as="geometry">
            <mxRectangle width="156" height="48" as="alternateBounds" />
          </mxGeometry>
        </mxCell>
        <mxCell id="AYcPpENJsECgOzOpR9Fd-113" value="10" style="shape=partialRectangle;html=1;whiteSpace=wrap;connectable=0;strokeColor=inherit;overflow=hidden;fillColor=none;top=0;left=0;bottom=0;right=0;pointerEvents=1;" vertex="1" parent="1">
          <mxGeometry x="406" y="610" width="156" height="55" as="geometry">
            <mxRectangle width="156" height="55" as="alternateBounds" />
          </mxGeometry>
        </mxCell>
        <mxCell id="AYcPpENJsECgOzOpR9Fd-119" value="10" style="shape=partialRectangle;html=1;whiteSpace=wrap;connectable=0;strokeColor=inherit;overflow=hidden;fillColor=none;top=0;left=0;bottom=0;right=0;pointerEvents=1;" vertex="1" parent="1">
          <mxGeometry x="406" y="700" width="156" height="49" as="geometry">
            <mxRectangle width="156" height="49" as="alternateBounds" />
          </mxGeometry>
        </mxCell>
        <mxCell id="AYcPpENJsECgOzOpR9Fd-118" value="int" style="shape=partialRectangle;html=1;whiteSpace=wrap;connectable=0;strokeColor=inherit;overflow=hidden;fillColor=none;top=0;left=0;bottom=0;right=0;pointerEvents=1;" vertex="1" parent="1">
          <mxGeometry x="266" y="700" width="156" height="49" as="geometry">
            <mxRectangle width="156" height="49" as="alternateBounds" />
          </mxGeometry>
        </mxCell>
        <mxCell id="AYcPpENJsECgOzOpR9Fd-112" value="int" style="shape=partialRectangle;html=1;whiteSpace=wrap;connectable=0;strokeColor=inherit;overflow=hidden;fillColor=none;top=0;left=0;bottom=0;right=0;pointerEvents=1;" vertex="1" parent="1">
          <mxGeometry x="276" y="630" width="156" height="55" as="geometry">
            <mxRectangle width="156" height="55" as="alternateBounds" />
          </mxGeometry>
        </mxCell>
        <mxCell id="AYcPpENJsECgOzOpR9Fd-117" value="googlepay_balance" style="shape=partialRectangle;html=1;whiteSpace=wrap;connectable=0;strokeColor=inherit;overflow=hidden;fillColor=none;top=0;left=0;bottom=0;right=0;pointerEvents=1;" vertex="1" parent="1">
          <mxGeometry x="116" y="692" width="156" height="49" as="geometry">
            <mxRectangle width="156" height="49" as="alternateBounds" />
          </mxGeometry>
        </mxCell>
        <mxCell id="AYcPpENJsECgOzOpR9Fd-111" value="Cash_balance" style="shape=partialRectangle;html=1;whiteSpace=wrap;connectable=0;strokeColor=inherit;overflow=hidden;fillColor=none;top=0;left=0;bottom=0;right=0;pointerEvents=1;" vertex="1" parent="1">
          <mxGeometry x="126" y="620" width="156" height="55" as="geometry">
            <mxRectangle width="156" height="55" as="alternateBounds" />
          </mxGeometry>
        </mxCell>
        <mxCell id="AYcPpENJsECgOzOpR9Fd-114" value="&#xa;&lt;span style=&quot;color: rgb(0, 0, 0); font-family: Helvetica; font-size: 12px; font-style: normal; font-variant-ligatures: normal; font-variant-caps: normal; font-weight: 400; letter-spacing: normal; orphans: 2; text-align: center; text-indent: 0px; text-transform: none; widows: 2; word-spacing: 0px; -webkit-text-stroke-width: 0px; background-color: rgb(251, 251, 251); text-decoration-thickness: initial; text-decoration-style: initial; text-decoration-color: initial; float: none; display: inline !important;&quot;&gt;foreign key&lt;/span&gt;&#xa;&#xa;" style="shape=partialRectangle;html=1;whiteSpace=wrap;connectable=0;strokeColor=inherit;overflow=hidden;fillColor=none;top=0;left=0;bottom=0;right=0;pointerEvents=1;" vertex="1" parent="1">
          <mxGeometry x="546" y="620" width="130" height="70" as="geometry">
            <mxRectangle width="160" height="55" as="alternateBounds" />
          </mxGeometry>
        </mxCell>
      </root>
    </mxGraphModel>
  </diagram>
</mxfile>
